<?xml version="1.0" encoding="UTF-8"?>
<svg id="Layer_1" data-name="Layer 1" xmlns="http://www.w3.org/2000/svg" viewBox="0 0 500 500">
  <rect width="500" height="500" style="fill: #2667ff;"/>
  <g>
    <polygon points="133.95 231.3 236.82 127.34 133.45 127.34 133.95 231.3" style="fill: #add7f6;"/>
    <path d="m343.09,196.24l-40.67,40.66c6.01,6.73,13.14,17.53,13.14,27.19,0,11.61-4.64,21.27-12.09,28.99-7.22,7.48-16.64,11.13-27.77,11.13h-88.34l179.84-176.84h-83.05l-150.27,149.56v96.57l57.31-.42h84.43c29.72,0,54.41-9.18,74.94-27.52,20.05-18.34,30.2-48.29,30.2-76.77,0-30.1-15.18-55.43-37.68-72.55h.02Z" style="fill: #fff;"/>
  </g>
</svg>